<svg xmlns="http://www.w3.org/2000/svg" xmlns:xlink="http://www.w3.org/1999/xlink" viewBox="0 0 224.028 228.119">
  <defs>
    <style>
      #logo {
        isolation: isolate;
      }

      #shadow {
        fill: #5c6800;
      }

      #shadow,
      #main,
      #middle_shine,
      #glare,
      #overlay1,
      #overlay2 {
        fill-rule: evenodd;
      }

      #main {
        fill: #9ca600;
      }

      #middle_shine {
        opacity: 0.76;
        fill: url(#radial-gradient);
      }

      #glare {
        opacity: 0.8;
        fill: url(#linear-gradient);
      }

      #overlay1,
      #overlay2 {
        fill: #000000;
        opacity: 0.46;
        mix-blend-mode: overlay;
      }
    </style>
    <radialGradient id="radial-gradient" cx="132.521" cy="131.251" r="112.056" gradientTransform="translate(0 39.375) scale(1 0.7)" gradientUnits="userSpaceOnUse">
      <stop offset="0" stop-color="#fff"/>
      <stop offset="1" stop-color="#fff" stop-opacity="0"/>
    </radialGradient>
    <linearGradient id="linear-gradient" x1="133.462" y1="18.153" x2="133.462" y2="282.433" gradientTransform="matrix(1, 0, 0, 1, 0, 0)" xlink:href="#radial-gradient"/>
  </defs>
  <title>jvk-logo</title>
  <g class="cls-1">
    <g id="logo">
      <path id="shadow" class="cls-2" d="M230.451,106.87s-7.129-1.723-8.834-6.119a95.32,95.32,0,1,0,5.887,44.476c.2-1.918.142-1.4.089-.9a11.186,11.186,0,0,0-9.937-12.378,15.821,15.821,0,0,0-11.724,3.81c-3.484,2.839-11.609,15.438-11.609,15.438l-32.848,52.178q-5.018,7.942-11.771,7.944-9.585,0-9.584-11.341l-1.03-40.818q0-11.1-2.025-14.95t-7.816-3.852c-3.56,0-9.939-.47-9.939-.47l-4.759,11.159q-7.785,18.5-16.274,26.11t-21.161,7.613q-11.964,0-19.972-7.522a24.655,24.655,0,0,1-8.008-18.74,27.706,27.706,0,0,1,4.7-15.558,35.165,35.165,0,0,1,13.314-11.674q10.933-5.761,30.167-5.762l10.162-.121,14.987-35.178q3.859-9.156,3.859-12.493a6.129,6.129,0,0,0-2.7-4.944,10.2,10.2,0,0,0-6.433-2.092q-6.238,0-11.353,5.338a16.741,16.741,0,0,0-5.113,11.826,8.4,8.4,0,0,0,1.769,5.61q1.769,2.094,6.144,3.67,4.629,1.76,4.63,5.579a7.2,7.2,0,0,1-2.765,5.762,10.39,10.39,0,0,1-6.883,2.305,18.062,18.062,0,0,1-13.925-6.4,22.351,22.351,0,0,1-5.757-15.5q0-13.281,10.548-23.138a35.1,35.1,0,0,1,24.764-9.855q10.419,0,17.4,5.912a18.64,18.64,0,0,1,6.979,14.829q0,5.641-3.345,13.586l-14.872,35.06c-.9.055-.051.118-.051.118l.051-.118c.693-.042,2.431-.079,6.415-.079q13.25,0,19.619,8.551a20.251,20.251,0,0,1,3.312,8.734,109.116,109.116,0,0,1,.933,16.679v24.017l31.195-50.036a41.352,41.352,0,0,1,10.86-12.215c6.189-4.413,13.295-6.152,21.69-5.214,7.926.887,14.263,5.052,19.011,10.628a24.671,24.671,0,0,1,5.909,19.514s-.093.931-.1.952a112.054,112.054,0,1,1-6.8-51.735C241.885,106.622,230.451,106.87,230.451,106.87ZM80.225,142.311a24.522,24.522,0,0,0-10.55,6.458,13.493,13.493,0,0,0-3.858,9.31,11.194,11.194,0,0,0,11.256,11.282q5.981,0,10.773-4.944t9.423-15.86l3.666-8.673Q87.429,139.884,80.225,142.311Zm147.368,2.012c0,.028,0,.056-.006.084C227.519,145.017,227.554,144.678,227.593,144.323Z" transform="translate(-20.507 -19.153)"/>
      <path id="main" class="cls-3" d="M230.451,102.946s-7.129-1.722-8.834-6.118A95.32,95.32,0,1,0,227.5,141.3c.2-1.918.142-1.4.089-.9a11.187,11.187,0,0,0-9.937-12.379,15.829,15.829,0,0,0-11.724,3.81c-3.484,2.839-11.609,15.439-11.609,15.439l-32.848,52.177q-5.018,7.944-11.771,7.944-9.585,0-9.584-11.341l-1.03-40.817q0-11.1-2.025-14.951t-7.816-3.851c-3.56,0-9.939-.47-9.939-.47l-4.759,11.159q-7.785,18.5-16.274,26.11t-21.161,7.612q-11.964,0-19.972-7.521a24.657,24.657,0,0,1-8.008-18.741,27.705,27.705,0,0,1,4.7-15.557,35.175,35.175,0,0,1,13.314-11.675q10.933-5.761,30.167-5.762l10.162-.121,14.987-35.177q3.859-9.157,3.859-12.493a6.132,6.132,0,0,0-2.7-4.945,10.2,10.2,0,0,0-6.433-2.092q-6.238,0-11.353,5.338a16.743,16.743,0,0,0-5.113,11.827,8.4,8.4,0,0,0,1.769,5.609q1.769,2.094,6.144,3.67,4.629,1.76,4.63,5.58a7.2,7.2,0,0,1-2.765,5.762,10.389,10.389,0,0,1-6.883,2.3,18.062,18.062,0,0,1-13.925-6.4,22.349,22.349,0,0,1-5.757-15.5q0-13.282,10.548-23.139a35.1,35.1,0,0,1,24.764-9.855q10.419,0,17.4,5.913A18.637,18.637,0,0,1,143.624,72.7q0,5.64-3.345,13.586l-14.872,35.06c-.9.055-.051.117-.051.117l.051-.117c.693-.042,2.431-.08,6.415-.08q13.25,0,19.619,8.552a20.246,20.246,0,0,1,3.312,8.734,109.107,109.107,0,0,1,.933,16.679V179.25l31.195-50.037A41.355,41.355,0,0,1,197.741,117c6.189-4.414,13.295-6.152,21.69-5.214,7.926.886,14.263,5.052,19.011,10.627a24.673,24.673,0,0,1,5.909,19.514s-.093.931-.1.953a112.053,112.053,0,1,1-6.8-51.736C241.885,102.7,230.451,102.946,230.451,102.946ZM80.225,138.387a24.523,24.523,0,0,0-10.55,6.459,13.491,13.491,0,0,0-3.858,9.31,11.193,11.193,0,0,0,11.256,11.281q5.981,0,10.773-4.944t9.423-15.859l3.666-8.673Q87.429,135.961,80.225,138.387ZM227.593,140.4c0,.028,0,.055-.006.084C227.519,141.094,227.554,140.754,227.593,140.4Z" transform="translate(-20.507 -19.153)"/>
      <path id="middle_shine" class="cls-4" d="M230.451,102.946s-7.129-1.722-8.834-6.118A95.32,95.32,0,1,0,227.5,141.3c.2-1.918.142-1.4.089-.9a11.187,11.187,0,0,0-9.937-12.379,15.829,15.829,0,0,0-11.724,3.81c-3.484,2.839-11.609,15.439-11.609,15.439l-32.848,52.177q-5.018,7.944-11.771,7.944-9.585,0-9.584-11.341l-1.03-40.817q0-11.1-2.025-14.951t-7.816-3.851c-3.56,0-9.939-.47-9.939-.47l-4.759,11.159q-7.785,18.5-16.274,26.11t-21.161,7.612q-11.964,0-19.972-7.521a24.657,24.657,0,0,1-8.008-18.741,27.705,27.705,0,0,1,4.7-15.557,35.175,35.175,0,0,1,13.314-11.675q10.933-5.761,30.167-5.762l10.162-.121,14.987-35.177q3.859-9.157,3.859-12.493a6.132,6.132,0,0,0-2.7-4.945,10.2,10.2,0,0,0-6.433-2.092q-6.238,0-11.353,5.338a16.743,16.743,0,0,0-5.113,11.827,8.4,8.4,0,0,0,1.769,5.609q1.769,2.094,6.144,3.67,4.629,1.76,4.63,5.58a7.2,7.2,0,0,1-2.765,5.762,10.389,10.389,0,0,1-6.883,2.3,18.062,18.062,0,0,1-13.925-6.4,22.349,22.349,0,0,1-5.757-15.5q0-13.282,10.548-23.139a35.1,35.1,0,0,1,24.764-9.855q10.419,0,17.4,5.913A18.637,18.637,0,0,1,143.624,72.7q0,5.64-3.345,13.586l-14.872,35.06c-.9.055-.051.117-.051.117l.051-.117c.693-.042,2.431-.08,6.415-.08q13.25,0,19.619,8.552a20.246,20.246,0,0,1,3.312,8.734,109.107,109.107,0,0,1,.933,16.679V179.25l31.195-50.037A41.355,41.355,0,0,1,197.741,117c6.189-4.414,13.295-6.152,21.69-5.214,7.926.886,14.263,5.052,19.011,10.627a24.673,24.673,0,0,1,5.909,19.514s-.093.931-.1.953a112.053,112.053,0,1,1-6.8-51.736C241.885,102.7,230.451,102.946,230.451,102.946ZM80.225,138.387a24.523,24.523,0,0,0-10.55,6.459,13.491,13.491,0,0,0-3.858,9.31,11.193,11.193,0,0,0,11.256,11.281q5.981,0,10.773-4.944t9.423-15.859l3.666-8.673Q87.429,135.961,80.225,138.387ZM227.593,140.4c0,.028,0,.055-.006.084C227.519,141.094,227.554,140.754,227.593,140.4Z" transform="translate(-20.507 -19.153)"/>
      <path id="glare" class="cls-5" d="M132.677,32.96c40.515,0,77.128,27.253,90.94,62.868,1.705,4.4,6.834,4.118,6.834,4.118s6.9,1.158,7.094-4.619c-.033-.088-.058-.171-.092-.26-16.146-42.1-56.969-72.991-104.776-72.991-47.294,0-87.747,29.835-104.243,71.5a115.431,115.431,0,0,0-5.927,36.679c0,1.177.023,2.348.058,3.517l.043,0c1.669,10.15,7.233,16.119,15.566,19.132a91.6,91.6,0,0,1-2.849-22.644C35.325,77.623,80.015,32.96,132.677,32.96Zm105.765,93.376c-4.748-5.576-11.085-9.742-19.011-10.628-8.4-.938-15.5.8-21.69,5.214a42.948,42.948,0,0,0-5.474,4.98c25.605-3.5,45.392-.5,50.958,18.122.176.588.367,1.144.552,1.712.177-1.28.34-2.564.473-3.857.008-.022.1-.953.1-.953.028-.25.044-.5.066-.746A24.462,24.462,0,0,0,238.442,126.336Zm-106.62-1.144c-3.983,0-5.721.037-6.415.08l-.05.117s-.848-.063.05-.117l2.113-4.982c-1.1.015-1.752.036-2.113.058l-.05.117s-.848-.062.05-.117l14.872-35.06a41.3,41.3,0,0,0,3.189-11.141A18.606,18.606,0,0,0,136.645,61.8q-6.98-5.912-17.4-5.912a35.1,35.1,0,0,0-24.764,9.855q-9.526,8.9-10.439,20.6A21.967,21.967,0,0,0,89.691,99.45a18.062,18.062,0,0,0,13.925,6.4,10.389,10.389,0,0,0,6.883-2.3,7.55,7.55,0,0,0,2.27-3.072,7,7,0,0,0-4.135-3.346q-4.376-1.578-6.144-3.67a8.4,8.4,0,0,1-1.769-5.61,15.763,15.763,0,0,1,.242-2.663,11.16,11.16,0,0,1-.242-2.26A16.743,16.743,0,0,1,105.834,71.1q5.115-5.337,11.353-5.338a10.2,10.2,0,0,1,6.433,2.092,6.132,6.132,0,0,1,2.7,4.945,12.775,12.775,0,0,1-.421,2.8,5.49,5.49,0,0,1,.421,2.121q0,3.336-3.859,12.493l-14.987,35.178-10.162.121q-19.233,0-30.167,5.762a35.172,35.172,0,0,0-13.314,11.674,27.707,27.707,0,0,0-4.481,12.213,91.446,91.446,0,0,0,16.588-.364,12.163,12.163,0,0,1-.122-1.639,13.491,13.491,0,0,1,3.858-9.31,24.523,24.523,0,0,1,10.55-6.459q7.2-2.427,20.71-2.426l-2.091,4.948c.691-.011,1.373-.025,2.091-.025l-3.666,8.673c-.082.193-.164.369-.246.56,5.947-1.416,12.05-2.992,18.23-4.644l4.057-9.512s6.38.47,9.939.47c3.514,0,5.975,1.076,7.41,3.2,5.127-1.4,10.244-2.791,15.309-4.116-.17-.268-.345-.528-.527-.775Q145.072,125.192,131.822,125.192Z" transform="translate(-20.507 -19.153)"/>
      <path id="overlay2" class="cls-6" d="M230.451,106.87s-7.129-1.723-8.834-6.119a95.32,95.32,0,1,0,5.887,44.476c.2-1.918.142-1.4.089-.9a11.186,11.186,0,0,0-9.937-12.378,15.821,15.821,0,0,0-11.724,3.81c-3.484,2.839-11.609,15.438-11.609,15.438l-32.848,52.178q-5.018,7.942-11.771,7.944-9.585,0-9.584-11.341l-1.03-40.818q0-11.1-2.025-14.95t-7.816-3.852c-3.56,0-9.939-.47-9.939-.47l-4.759,11.159q-7.785,18.5-16.274,26.11t-21.161,7.613q-11.964,0-19.972-7.522a24.655,24.655,0,0,1-8.008-18.74,27.706,27.706,0,0,1,4.7-15.558,35.165,35.165,0,0,1,13.314-11.674q10.933-5.761,30.167-5.762l10.162-.121,14.987-35.178q3.859-9.156,3.859-12.493a6.129,6.129,0,0,0-2.7-4.944,10.2,10.2,0,0,0-6.433-2.092q-6.238,0-11.353,5.338a16.741,16.741,0,0,0-5.113,11.826,8.4,8.4,0,0,0,1.769,5.61q1.769,2.094,6.144,3.67,4.629,1.76,4.63,5.579a7.2,7.2,0,0,1-2.765,5.762,10.39,10.39,0,0,1-6.883,2.305,18.062,18.062,0,0,1-13.925-6.4,22.351,22.351,0,0,1-5.757-15.5q0-13.281,10.548-23.138a35.1,35.1,0,0,1,24.764-9.855q10.419,0,17.4,5.912a18.64,18.64,0,0,1,6.979,14.829q0,5.641-3.345,13.586l-14.872,35.06c-.9.055-.051.118-.051.118l.051-.118c.693-.042,2.431-.079,6.415-.079q13.25,0,19.619,8.551a20.251,20.251,0,0,1,3.312,8.734,109.116,109.116,0,0,1,.933,16.679v24.017l31.195-50.036a41.352,41.352,0,0,1,10.86-12.215c6.189-4.413,13.295-6.152,21.69-5.214,7.926.887,14.263,5.052,19.011,10.628a24.671,24.671,0,0,1,5.909,19.514s-.093.931-.1.952a112.054,112.054,0,1,1-6.8-51.735C241.885,106.622,230.451,106.87,230.451,106.87ZM80.225,142.311a24.522,24.522,0,0,0-10.55,6.458,13.493,13.493,0,0,0-3.858,9.31,11.194,11.194,0,0,0,11.256,11.282q5.981,0,10.773-4.944t9.423-15.86l3.666-8.673Q87.429,139.884,80.225,142.311Zm147.368,2.012c0,.028,0,.056-.006.084C227.519,145.017,227.554,144.678,227.593,144.323Z" transform="translate(-20.507 -19.153)"/>
      <path id="overlay1" class="cls-6" d="M230.451,106.87s-7.129-1.723-8.834-6.119a95.32,95.32,0,1,0,5.887,44.476c.2-1.918.142-1.4.089-.9a11.186,11.186,0,0,0-9.937-12.378,15.821,15.821,0,0,0-11.724,3.81c-3.484,2.839-11.609,15.438-11.609,15.438l-32.848,52.178q-5.018,7.942-11.771,7.944-9.585,0-9.584-11.341l-1.03-40.818q0-11.1-2.025-14.95t-7.816-3.852c-3.56,0-9.939-.47-9.939-.47l-4.759,11.159q-7.785,18.5-16.274,26.11t-21.161,7.613q-11.964,0-19.972-7.522a24.655,24.655,0,0,1-8.008-18.74,27.706,27.706,0,0,1,4.7-15.558,35.165,35.165,0,0,1,13.314-11.674q10.933-5.761,30.167-5.762l10.162-.121,14.987-35.178q3.859-9.156,3.859-12.493a6.129,6.129,0,0,0-2.7-4.944,10.2,10.2,0,0,0-6.433-2.092q-6.238,0-11.353,5.338a16.741,16.741,0,0,0-5.113,11.826,8.4,8.4,0,0,0,1.769,5.61q1.769,2.094,6.144,3.67,4.629,1.76,4.63,5.579a7.2,7.2,0,0,1-2.765,5.762,10.39,10.39,0,0,1-6.883,2.305,18.062,18.062,0,0,1-13.925-6.4,22.351,22.351,0,0,1-5.757-15.5q0-13.281,10.548-23.138a35.1,35.1,0,0,1,24.764-9.855q10.419,0,17.4,5.912a18.64,18.64,0,0,1,6.979,14.829q0,5.641-3.345,13.586l-14.872,35.06c-.9.055-.051.118-.051.118l.051-.118c.693-.042,2.431-.079,6.415-.079q13.25,0,19.619,8.551a20.251,20.251,0,0,1,3.312,8.734,109.116,109.116,0,0,1,.933,16.679v24.017l31.195-50.036a41.352,41.352,0,0,1,10.86-12.215c6.189-4.413,13.295-6.152,21.69-5.214,7.926.887,14.263,5.052,19.011,10.628a24.671,24.671,0,0,1,5.909,19.514s-.093.931-.1.952a112.054,112.054,0,1,1-6.8-51.735C241.885,106.622,230.451,106.87,230.451,106.87ZM80.225,142.311a24.522,24.522,0,0,0-10.55,6.458,13.493,13.493,0,0,0-3.858,9.31,11.194,11.194,0,0,0,11.256,11.282q5.981,0,10.773-4.944t9.423-15.86l3.666-8.673Q87.429,139.884,80.225,142.311Zm147.368,2.012c0,.028,0,.056-.006.084C227.519,145.017,227.554,144.678,227.593,144.323Z" transform="translate(-20.507 -19.153)"/>
    </g>
  </g>
</svg>
